<?xml version="1.0" encoding="UTF-8"?>
<svg version="1.1" xmlns="http://www.w3.org/2000/svg" width="500" height="500">
<path d="M0 0 C165 0 330 0 500 0 C500 165 500 330 500 500 C335 500 170 500 0 500 C0 335 0 170 0 0 Z " fill="#FEFEFE" transform="translate(0,0)"/>
<path d="M0 0 C3.58861731 3.53847695 5.29418936 6.40950565 5.58203125 11.4921875 C5.31315721 15.2220997 4.92490628 16.18671111 2.51953125 19.2421875 C1.63265625 19.9228125 0.74578125 20.6034375 -0.16796875 21.3046875 C-0.76609375 21.9028125 -1.36421875 22.5009375 -1.98046875 23.1171875 C-2.56828125 23.705 -2.56828125 23.705 -3.16796875 24.3046875 C-2.67296875 25.2946875 -2.67296875 25.2946875 -2.16796875 26.3046875 C-1.56617363 32.12204034 -2.20055817 35.63663157 -5.53515625 40.4765625 C-9.34516131 44.7423098 -14.66387659 47.93099935 -20.40234375 48.54296875 C-26.59650259 48.72571567 -30.22005101 48.14184819 -35.16796875 44.3046875 C-40.95037121 34.6628361 -38.11973531 22.42651797 -36.91796875 11.7421875 C-36.75433838 10.17138428 -36.75433838 10.17138428 -36.58740234 8.56884766 C-35.38679361 -1.15718456 -35.38679361 -1.15718456 -31.16796875 -4.6953125 C-21.0716388 -8.12840292 -8.38851284 -6.5596659 0 0 Z " fill="#040404" transform="translate(245.16796875,216.6953125)"/>
<path d="M0 0 C8.89243366 0.27336595 16.74705672 3.57183224 23.5 9.3125 C28.58507818 15.02866187 29.87797738 19.98206049 29.76953125 27.46484375 C29.18374524 33.65380024 26.39860506 37.73885134 22 42 C17.07269707 46.0490782 11.42880413 48.12906455 5.5 50.3125 C4.60925781 50.68117188 3.71851563 51.04984375 2.80078125 51.4296875 C0.1383695 52.45125805 -1.67287564 52.68449005 -4.5 52.3125 C-6.12573242 51.13647461 -6.12573242 51.13647461 -7.5 49.3125 C-7.87231445 46.81079102 -7.87231445 46.81079102 -7.86328125 43.81640625 C-7.86448975 42.15532837 -7.86448975 42.15532837 -7.86572266 40.46069336 C-7.84815918 39.27741455 -7.8305957 38.09413574 -7.8125 36.875 C-7.79775635 35.06817749 -7.79775635 35.06817749 -7.78271484 33.22485352 C-7.67613829 25.70622613 -7.34272141 18.23540804 -6.625 10.75 C-6.50765503 9.50295288 -6.50765503 9.50295288 -6.38793945 8.23071289 C-5.52862878 0.49362757 -5.52862878 0.49362757 0 0 Z " fill="#070707" transform="translate(381.5,211.6875)"/>
<path d="M0 0 C6.75 0.75 6.75 0.75 9 3 C9.79456675 9.00596939 8.68435662 15.14542924 7.609375 21.05078125 C7.46348938 21.87200974 7.31760376 22.69323822 7.16729736 23.53935242 C6.85870823 25.25851635 6.54589495 26.97692705 6.22900391 28.69458008 C5.74857365 31.32029548 5.2937927 33.94967169 4.83984375 36.58007812 C4.5354065 38.25809488 4.22946945 39.93584037 3.921875 41.61328125 C3.78940369 42.39560623 3.65693237 43.17793121 3.52044678 43.98396301 C2.66076757 48.48043941 1.73959047 51.2373753 -2 54 C-4.5625 54.5 -4.5625 54.5 -7 54 C-10.00050065 50.74139177 -11.52315511 46.79374165 -13.1875 42.75 C-13.46013672 42.1003125 -13.73277344 41.450625 -14.01367188 40.78125 C-14.68076842 39.18958104 -15.34107445 37.59506897 -16 36 C-16.25394531 37.25296875 -16.50789063 38.5059375 -16.76953125 39.796875 C-17.11664905 41.44802995 -17.46433514 43.09906551 -17.8125 44.75 C-18.0609668 45.9875 -18.0609668 45.9875 -18.31445312 47.25 C-20.01384997 55.20189469 -20.01384997 55.20189469 -23 58 C-26 58.5 -26 58.5 -29 58 C-30.91311093 56.00830207 -31.92943992 54.74463208 -32.19287109 51.96459961 C-31.2486935 44.75017462 -29.75965346 37.67298913 -28.09863281 30.59301758 C-27.62080415 28.54451191 -27.16165573 26.49235375 -26.703125 24.43945312 C-26.39955629 23.12734482 -26.09490824 21.81548566 -25.7890625 20.50390625 C-25.51787598 19.32642822 -25.24668945 18.1489502 -24.96728516 16.93579102 C-23.50613022 12.50106409 -23.50613022 12.50106409 -21 11 C-18.69 11 -16.38 11 -14 11 C-10.535 17.93 -10.535 17.93 -7 25 C-5.38596304 21.77192608 -4.70267084 20.14919154 -4.21875 16.77734375 C-4.09886719 15.99166016 -3.97898437 15.20597656 -3.85546875 14.39648438 C-3.61793644 12.75333507 -3.38095982 11.11010535 -3.14453125 9.46679688 C-3.02464844 8.68240234 -2.90476562 7.89800781 -2.78125 7.08984375 C-2.67876953 6.37691162 -2.57628906 5.66397949 -2.47070312 4.92944336 C-2 3 -2 3 0 0 Z " fill="#060606" transform="translate(79,217)"/>
<path d="M0 0 C3.05285549 0.19486312 5.22638897 0.41651748 7.70166016 2.28344727 C9 4 9 4 9.15771484 5.96850586 C8.99843506 7.11138062 8.99843506 7.11138062 8.8359375 8.27734375 C8.71702148 9.16534668 8.59810547 10.05334961 8.47558594 10.96826172 C8.31864258 11.96873535 8.16169922 12.96920898 8 14 C7.83016602 15.11777832 7.66033203 16.23555664 7.48535156 17.38720703 C6.89602813 21.11807768 6.2654167 24.84007796 5.625 28.5625 C5.41617188 29.82513672 5.20734375 31.08777344 4.9921875 32.38867188 C1.9707142 50.0292858 1.9707142 50.0292858 -2 54 C-4.62952276 54.3371183 -6.27328563 54.53240572 -8.4609375 52.9296875 C-10.66202242 50.16995159 -11.87064044 47.05425057 -13.1875 43.8125 C-13.46013672 43.15830078 -13.73277344 42.50410156 -14.01367188 41.83007812 C-14.68239798 40.22278908 -15.34209925 38.61175038 -16 37 C-18.32913939 42.76739276 -19.94126799 48.50039316 -21.3515625 54.55859375 C-22 57 -22 57 -23 58 C-26.4375 58.1875 -26.4375 58.1875 -30 58 C-32 56 -32 56 -32.19921875 52.3359375 C-31.93094369 42.15065717 -29.12771706 31.98667421 -26.5 22.1875 C-26.29866455 21.41680176 -26.0973291 20.64610352 -25.88989258 19.85205078 C-24.84464791 16.10124499 -24.05597228 13.46789256 -21 11 C-18 10.5625 -18 10.5625 -15 11 C-12.20066636 14.01522055 -10.83454563 17.46545411 -9.3125 21.25 C-8.65701172 22.86648437 -8.65701172 22.86648437 -7.98828125 24.515625 C-7.49908203 25.74539062 -7.49908203 25.74539062 -7 27 C-6.67817884 25.39089418 -6.35641477 23.78177691 -6.03491211 22.17260742 C-5.76068486 20.80277782 -5.48544993 19.43314958 -5.20922852 18.0637207 C-4.59144322 14.99508512 -3.98676288 11.9273309 -3.42578125 8.84765625 C-3.26464844 7.96980469 -3.10351562 7.09195313 -2.9375 6.1875 C-2.80214844 5.41792969 -2.66679687 4.64835938 -2.52734375 3.85546875 C-2 2 -2 2 0 0 Z " fill="#050505" transform="translate(357,217)"/>
<path d="M0 0 C1.28293945 -0.04350586 1.28293945 -0.04350586 2.59179688 -0.08789062 C6.76162725 -0.12987962 9.11543774 -0.0166514 12.796875 2.1015625 C14.6875 4.3125 14.6875 4.3125 14.625 8 C14.315625 9.093125 14.00625 10.18625 13.6875 11.3125 C10.62216836 12.84516582 7.41995728 12.41526471 4.0625 12.375 C3.35609375 12.37048828 2.6496875 12.36597656 1.921875 12.36132812 C0.17704725 12.34953875 -1.567737 12.33160324 -3.3125 12.3125 C-3.6425 15.2825 -3.9725 18.2525 -4.3125 21.3125 C-2.7346875 21.2196875 -2.7346875 21.2196875 -1.125 21.125 C2.84566493 21.3202786 4.52946969 22.01575068 7.6875 24.3125 C7.375 27.6875 7.375 27.6875 6.6875 31.3125 C3.37379 33.52164 2.3428979 33.53731553 -1.5 33.4375 C-2.40105469 33.41945312 -3.30210937 33.40140625 -4.23046875 33.3828125 C-4.91753906 33.35960937 -5.60460937 33.33640625 -6.3125 33.3125 C-6.6425 35.9525 -6.9725 38.5925 -7.3125 41.3125 C-6.74740723 41.30202637 -6.18231445 41.29155273 -5.60009766 41.28076172 C-3.04594347 41.23925212 -0.49186018 41.2131904 2.0625 41.1875 C2.95195312 41.17074219 3.84140625 41.15398437 4.7578125 41.13671875 C6.03398437 41.12705078 6.03398437 41.12705078 7.3359375 41.1171875 C8.51422119 41.10147705 8.51422119 41.10147705 9.71630859 41.08544922 C11.6875 41.3125 11.6875 41.3125 13.6875 43.3125 C13.9375 46.8125 13.9375 46.8125 13.6875 50.3125 C10.89315469 53.10684531 8.13005846 52.7716436 4.375 52.9375 C3.66456543 52.97399658 2.95413086 53.01049316 2.22216797 53.0480957 C-12.57457912 53.75341062 -12.57457912 53.75341062 -17.3125 53.3125 C-19.3125 51.3125 -19.3125 51.3125 -19.4296875 48.05859375 C-19.36442442 46.62160997 -19.28228798 45.1853386 -19.1875 43.75 C-19.13964355 42.97293701 -19.09178711 42.19587402 -19.04248047 41.39526367 C-18.52214111 34.25551384 -17.53468878 27.19652182 -16.4375 20.125 C-16.27620605 19.06273193 -16.11491211 18.00046387 -15.94873047 16.90600586 C-15.03025896 11.29762819 -13.97783394 6.35709801 -11.3125 1.3125 C-7.81206737 -0.43771631 -3.85684036 0.04301309 0 0 Z " fill="#070707" transform="translate(184.3125,210.6875)"/>
<path d="M0 0 C2.375 1.625 2.375 1.625 4 4 C4.1875 7 4.1875 7 3 10 C1.25354662 11.1940472 -0.45092213 12.04228555 -2.40625 12.84765625 C-4.28039145 13.94929541 -4.28039145 13.94929541 -4.71875 16.62109375 C-4.85796875 17.79865234 -4.85796875 17.79865234 -5 19 C-4.12988281 19.52787109 -4.12988281 19.52787109 -3.2421875 20.06640625 C2.83144024 23.90501916 8.6499693 27.94990789 11 35 C11.81872625 40.92991728 11.11303267 45.36367167 7.59765625 50.26953125 C3.96970145 54.19907643 0.29863445 55.71002772 -4.97265625 56.375 C-11.15077468 56.61998115 -15.22116871 56.28869475 -20 52 C-20.639375 51.525625 -21.27875 51.05125 -21.9375 50.5625 C-23 49 -23 49 -22.8125 46.4375 C-22 44 -22 44 -20 42 C-16.5 41.75 -16.5 41.75 -13 42 C-12.34 42.66 -11.68 43.32 -11 44 C-6.94738713 44.34490322 -5.45245824 44.30163882 -2 42 C-1.30661236 39.09381015 -1.30661236 39.09381015 -2 36 C-4.28275207 33.64386653 -4.28275207 33.64386653 -7.3125 31.8125 C-15.54865772 26.35402685 -15.54865772 26.35402685 -17 22 C-17.52279774 17.50051126 -17.47902276 13.99796407 -15.5 9.875 C-6.24028427 -0.77367309 -6.24028427 -0.77367309 0 0 Z " fill="#060606" transform="translate(442,211)"/>
<path d="M0 0 C1.5 1.875 1.5 1.875 1.9375 4.875 C1.44886696 8.22562654 1.10461684 8.86703547 -1.5 10.875 C-3.76953125 11.4296875 -3.76953125 11.4296875 -6.3125 11.75 C-11.47889764 12.65506236 -13.89114561 14.08570289 -17.5 17.875 C-20.01173775 22.0554355 -20.34891719 26.10661408 -19.5 30.875 C-17.24734438 33.27298824 -15.65287551 33.76509972 -12.41015625 34.07421875 C-8.67154033 34.1572991 -5.37074012 33.84957183 -1.6875 33.125 C1.5 32.875 1.5 32.875 4 34.4375 C5.5 36.875 5.5 36.875 5.4375 40 C4.5 42.875 4.5 42.875 1.5 44.875 C-2.75098126 46.04951354 -7.05315863 46.12643675 -11.4375 46.1875 C-12.47293945 46.23100586 -12.47293945 46.23100586 -13.52929688 46.27539062 C-19.50678578 46.34904689 -22.89841495 44.40081073 -27.109375 40.3125 C-31.60380359 34.64828862 -33.03449512 31.03490226 -32.87109375 23.81640625 C-31.77022905 15.09060496 -26.28102036 8.16809862 -19.5 2.875 C-13.42930642 -0.88203764 -6.85186345 -3.08333855 0 0 Z " fill="#070707" transform="translate(151.5,216.125)"/>
<path d="M0 0 C0.66 0.33 1.32 0.66 2 1 C2.31366039 11.83870913 1.36326269 22.2643063 0 33 C0.94101562 32.855625 1.88203125 32.71125 2.8515625 32.5625 C4.09679687 32.376875 5.34203125 32.19125 6.625 32 C7.85476563 31.814375 9.08453125 31.62875 10.3515625 31.4375 C18.92341085 30.4096124 18.92341085 30.4096124 21.9375 32.0625 C23.68524469 35.24956385 22.92651358 37.60278355 22 41 C19.34905018 42.72167272 16.83315608 43.35062373 13.734375 43.81640625 C12.92613281 43.94080078 12.11789062 44.06519531 11.28515625 44.19335938 C10.44855469 44.31517578 9.61195313 44.43699219 8.75 44.5625 C7.92886719 44.68818359 7.10773438 44.81386719 6.26171875 44.94335938 C4.63071186 45.19020749 2.99853012 45.42942495 1.36523438 45.66064453 C-0.18818648 45.88352387 -1.73925862 46.12357803 -3.28710938 46.38232422 C-8.66904607 47.22063595 -8.66904607 47.22063595 -12 45 C-13.48947617 35.55204823 -11.6560668 25.16828374 -10.6875 15.75 C-10.57003418 14.54738525 -10.45256836 13.34477051 -10.33154297 12.10571289 C-10.20537598 10.97254639 -10.07920898 9.83937988 -9.94921875 8.671875 C-9.78425903 7.14191895 -9.78425903 7.14191895 -9.6159668 5.58105469 C-8.27886051 -0.02175453 -5.36405974 -0.45651572 0 0 Z " fill="#050505" transform="translate(271,212)"/>
<path d="M0 0 C1.093125 0.28875 2.18625 0.5775 3.3125 0.875 C4.90134928 4.05269855 4.21374735 7.40896089 4 10.875 C3.95077393 11.69500488 3.90154785 12.51500977 3.85083008 13.35986328 C3.73828713 15.18443854 3.62245056 17.00881263 3.50390625 18.83300781 C3.36961941 20.96720938 3.24549799 23.10206333 3.12890625 25.23730469 C2.9374629 28.74286676 2.72095022 32.24618564 2.5 35.75 C2.44223389 36.87277344 2.38446777 37.99554688 2.32495117 39.15234375 C2.00898311 43.78044996 1.77432203 47.05800552 -0.53125 51.13671875 C-2.6875 52.875 -2.6875 52.875 -6.375 52.8125 C-7.468125 52.503125 -8.56125 52.19375 -9.6875 51.875 C-13.53897231 44.17205539 -10.40534862 29.93718487 -9.62548828 21.36669922 C-9.43467724 19.21821645 -9.27015403 17.06859329 -9.10546875 14.91796875 C-8.98336839 13.53631622 -8.85972913 12.15479862 -8.734375 10.7734375 C-8.62963867 9.54286621 -8.52490234 8.31229492 -8.41699219 7.04443359 C-7.21911164 1.83998738 -5.38941428 -0.18269201 0 0 Z " fill="#090909" transform="translate(312.6875,215.125)"/>
<path d="M0 0 C2 2 2 2 2.23046875 4.7578125 C2.20919922 6.42457031 2.20919922 6.42457031 2.1875 8.125 C2.17783203 9.76855469 2.17783203 9.76855469 2.16796875 11.4453125 C2.01835237 14.61161264 1.66825367 17.6915654 1.24731445 20.83105469 C0.68605843 25.75326444 0.5949514 30.71860699 0.39453125 35.66601562 C-0.2014125 49.11584955 -0.2014125 49.11584955 -2.75 51.9375 C-5.41086144 53.1940179 -7.09053036 53.38282495 -10 53 C-12.93705759 50.06294241 -12.28979704 47.52981069 -12.32885742 43.5065918 C-12.32345947 42.4731665 -12.31806152 41.43974121 -12.3125 40.375 C-12.30903564 39.31643799 -12.30557129 38.25787598 -12.30200195 37.16723633 C-12.19682004 29.28440382 -11.62313322 21.51377558 -10.6875 13.6875 C-10.56995361 12.66253418 -10.45240723 11.63756836 -10.33129883 10.58154297 C-10.2052124 9.63037598 -10.07912598 8.67920898 -9.94921875 7.69921875 C-9.78425903 6.44371216 -9.78425903 6.44371216 -9.6159668 5.1628418 C-8.12780584 -0.06253192 -5.04268335 -0.53645568 0 0 Z " fill="#070707" transform="translate(109,215)"/>
<path d="M0 0 C4.52536666 0.53239608 7.38839627 2.27123273 11 5 C13.27825643 8.41738465 13.16964715 10.02922186 12.53515625 14.00390625 C11.34095612 18.45818556 8.78744864 20.53395897 4.9375 22.8125 C2 24 2 24 -1 24 C-1.18451025 7.1070615 -1.18451025 7.1070615 0 0 Z " fill="#F6F6F6" transform="translate(387,225)"/>
<path d="M0 0 C5.37862712 0.01723919 8.75469025 2.1837555 12.9375 5.375 C9.34457847 9.32168612 4.95088652 11.1294269 -0.36328125 11.5625 C-2.26404866 11.5625 -4.16445424 11.47668102 -6.0625 11.375 C-5.92207123 9.72869672 -5.77500671 8.08295821 -5.625 6.4375 C-5.54378906 5.52097656 -5.46257812 4.60445312 -5.37890625 3.66015625 C-4.85868448 -0.09700098 -3.50236001 0.15619444 0 0 Z " fill="#ECECEC" transform="translate(226.0625,221.625)"/>
<path d="M0 0 C8.57142857 -0.28571429 8.57142857 -0.28571429 12 2 C11.875 3.75 11.875 3.75 11 6 C8.04498731 8.41773765 6.01590868 9.88712126 2.1875 10.3125 C0 10 0 10 -1 9 C-0.91062197 7.47480724 -0.75462854 5.95318071 -0.5625 4.4375 C-0.46066406 3.61121094 -0.35882813 2.78492188 -0.25390625 1.93359375 C-0.17011719 1.29550781 -0.08632812 0.65742188 0 0 Z " fill="#EEEEEE" transform="translate(219,244)"/>
</svg>
